<mxfile host="app.diagrams.net" agent="Mozilla/5.0 (Windows NT 10.0; Win64; x64) AppleWebKit/537.36 (KHTML, like Gecko) Chrome/134.0.0.0 Safari/537.36" version="26.1.0" pages="4">
  <diagram name="bÃ i 2" id="g50EsO93fSOL9lc32aiP">
    <mxGraphModel dx="2150" dy="942" grid="1" gridSize="10" guides="1" tooltips="1" connect="1" arrows="1" fold="1" page="1" pageScale="1" pageWidth="827" pageHeight="1169" math="0" shadow="0">
      <root>
        <mxCell id="0" />
        <mxCell id="1" parent="0" />
        <mxCell id="nvQuGseZhimio0jntBwH-1" value="entry" style="rounded=0;whiteSpace=wrap;html=1;" vertex="1" parent="1">
          <mxGeometry x="330" y="50" width="120" height="60" as="geometry" />
        </mxCell>
        <mxCell id="nvQuGseZhimio0jntBwH-2" value="char res" style="rounded=0;whiteSpace=wrap;html=1;" vertex="1" parent="1">
          <mxGeometry x="330" y="150" width="120" height="60" as="geometry" />
        </mxCell>
        <mxCell id="nvQuGseZhimio0jntBwH-3" value="return &#39;I&#39;" style="rounded=0;whiteSpace=wrap;html=1;" vertex="1" parent="1">
          <mxGeometry x="530" y="250" width="120" height="60" as="geometry" />
        </mxCell>
        <mxCell id="nvQuGseZhimio0jntBwH-4" value="res = &#39;A&#39;" style="rounded=0;whiteSpace=wrap;html=1;" vertex="1" parent="1">
          <mxGeometry x="530" y="360" width="120" height="60" as="geometry" />
        </mxCell>
        <mxCell id="nvQuGseZhimio0jntBwH-5" value="res = &#39;B&quot;" style="rounded=0;whiteSpace=wrap;html=1;" vertex="1" parent="1">
          <mxGeometry x="530" y="460" width="120" height="60" as="geometry" />
        </mxCell>
        <mxCell id="nvQuGseZhimio0jntBwH-6" value="res = &#39;C&#39;" style="rounded=0;whiteSpace=wrap;html=1;" vertex="1" parent="1">
          <mxGeometry x="530" y="550" width="120" height="60" as="geometry" />
        </mxCell>
        <mxCell id="nvQuGseZhimio0jntBwH-7" value="res = &#39;D&#39;" style="rounded=0;whiteSpace=wrap;html=1;" vertex="1" parent="1">
          <mxGeometry x="530" y="650" width="120" height="60" as="geometry" />
        </mxCell>
        <mxCell id="nvQuGseZhimio0jntBwH-8" value="res = &#39;F&#39;" style="rounded=0;whiteSpace=wrap;html=1;" vertex="1" parent="1">
          <mxGeometry x="330" y="750" width="120" height="60" as="geometry" />
        </mxCell>
        <mxCell id="nvQuGseZhimio0jntBwH-9" value="return res" style="rounded=0;whiteSpace=wrap;html=1;" vertex="1" parent="1">
          <mxGeometry x="330" y="840" width="120" height="60" as="geometry" />
        </mxCell>
        <mxCell id="nvQuGseZhimio0jntBwH-10" value="exit" style="rounded=0;whiteSpace=wrap;html=1;" vertex="1" parent="1">
          <mxGeometry x="330" y="930" width="120" height="60" as="geometry" />
        </mxCell>
        <mxCell id="nvQuGseZhimio0jntBwH-11" value="" style="endArrow=classic;html=1;rounded=0;exitX=0.5;exitY=1;exitDx=0;exitDy=0;entryX=0.5;entryY=0;entryDx=0;entryDy=0;" edge="1" parent="1" source="nvQuGseZhimio0jntBwH-1" target="nvQuGseZhimio0jntBwH-2">
          <mxGeometry width="50" height="50" relative="1" as="geometry">
            <mxPoint x="370" y="350" as="sourcePoint" />
            <mxPoint x="420" y="300" as="targetPoint" />
          </mxGeometry>
        </mxCell>
        <mxCell id="nvQuGseZhimio0jntBwH-12" value="score &amp;lt; 0 || score &amp;gt; 10" style="rhombus;whiteSpace=wrap;html=1;" vertex="1" parent="1">
          <mxGeometry x="320" y="240" width="140" height="80" as="geometry" />
        </mxCell>
        <mxCell id="nvQuGseZhimio0jntBwH-13" value="" style="endArrow=classic;html=1;rounded=0;exitX=0.5;exitY=1;exitDx=0;exitDy=0;entryX=0.5;entryY=0;entryDx=0;entryDy=0;" edge="1" parent="1" source="nvQuGseZhimio0jntBwH-2" target="nvQuGseZhimio0jntBwH-12">
          <mxGeometry width="50" height="50" relative="1" as="geometry">
            <mxPoint x="370" y="350" as="sourcePoint" />
            <mxPoint x="420" y="300" as="targetPoint" />
          </mxGeometry>
        </mxCell>
        <mxCell id="nvQuGseZhimio0jntBwH-14" value="" style="endArrow=classic;html=1;rounded=0;exitX=1;exitY=0.5;exitDx=0;exitDy=0;entryX=0;entryY=0.5;entryDx=0;entryDy=0;" edge="1" parent="1" source="nvQuGseZhimio0jntBwH-12" target="nvQuGseZhimio0jntBwH-3">
          <mxGeometry width="50" height="50" relative="1" as="geometry">
            <mxPoint x="370" y="350" as="sourcePoint" />
            <mxPoint x="420" y="300" as="targetPoint" />
          </mxGeometry>
        </mxCell>
        <mxCell id="nvQuGseZhimio0jntBwH-19" value="T" style="text;html=1;align=center;verticalAlign=middle;whiteSpace=wrap;rounded=0;" vertex="1" parent="1">
          <mxGeometry x="460" y="250" width="60" height="30" as="geometry" />
        </mxCell>
        <mxCell id="nvQuGseZhimio0jntBwH-20" value="score &amp;gt;= 9" style="rhombus;whiteSpace=wrap;html=1;" vertex="1" parent="1">
          <mxGeometry x="317.5" y="350" width="145" height="80" as="geometry" />
        </mxCell>
        <mxCell id="nvQuGseZhimio0jntBwH-21" value="" style="endArrow=classic;html=1;rounded=0;exitX=1;exitY=0.5;exitDx=0;exitDy=0;entryX=0;entryY=0.5;entryDx=0;entryDy=0;" edge="1" parent="1" source="nvQuGseZhimio0jntBwH-20" target="nvQuGseZhimio0jntBwH-4">
          <mxGeometry width="50" height="50" relative="1" as="geometry">
            <mxPoint x="370" y="400" as="sourcePoint" />
            <mxPoint x="420" y="350" as="targetPoint" />
          </mxGeometry>
        </mxCell>
        <mxCell id="nvQuGseZhimio0jntBwH-22" value="T" style="text;html=1;align=center;verticalAlign=middle;whiteSpace=wrap;rounded=0;" vertex="1" parent="1">
          <mxGeometry x="460" y="360" width="60" height="30" as="geometry" />
        </mxCell>
        <mxCell id="nvQuGseZhimio0jntBwH-23" value="" style="endArrow=classic;html=1;rounded=0;exitX=0.5;exitY=1;exitDx=0;exitDy=0;entryX=0.5;entryY=0;entryDx=0;entryDy=0;" edge="1" parent="1" source="nvQuGseZhimio0jntBwH-12" target="nvQuGseZhimio0jntBwH-20">
          <mxGeometry width="50" height="50" relative="1" as="geometry">
            <mxPoint x="370" y="400" as="sourcePoint" />
            <mxPoint x="420" y="350" as="targetPoint" />
          </mxGeometry>
        </mxCell>
        <mxCell id="nvQuGseZhimio0jntBwH-24" value="F" style="text;html=1;align=center;verticalAlign=middle;whiteSpace=wrap;rounded=0;" vertex="1" parent="1">
          <mxGeometry x="330" y="320" width="60" height="30" as="geometry" />
        </mxCell>
        <mxCell id="nvQuGseZhimio0jntBwH-25" value="score &amp;gt;= 8" style="rhombus;whiteSpace=wrap;html=1;" vertex="1" parent="1">
          <mxGeometry x="320" y="450" width="140" height="80" as="geometry" />
        </mxCell>
        <mxCell id="nvQuGseZhimio0jntBwH-26" value="" style="endArrow=classic;html=1;rounded=0;exitX=0.5;exitY=1;exitDx=0;exitDy=0;entryX=0.5;entryY=0;entryDx=0;entryDy=0;" edge="1" parent="1" source="nvQuGseZhimio0jntBwH-20" target="nvQuGseZhimio0jntBwH-25">
          <mxGeometry width="50" height="50" relative="1" as="geometry">
            <mxPoint x="460" y="420" as="sourcePoint" />
            <mxPoint x="510" y="370" as="targetPoint" />
          </mxGeometry>
        </mxCell>
        <mxCell id="nvQuGseZhimio0jntBwH-27" value="" style="endArrow=classic;html=1;rounded=0;exitX=1;exitY=0.5;exitDx=0;exitDy=0;entryX=0;entryY=0.5;entryDx=0;entryDy=0;" edge="1" parent="1" source="nvQuGseZhimio0jntBwH-25" target="nvQuGseZhimio0jntBwH-5">
          <mxGeometry width="50" height="50" relative="1" as="geometry">
            <mxPoint x="460" y="420" as="sourcePoint" />
            <mxPoint x="510" y="370" as="targetPoint" />
          </mxGeometry>
        </mxCell>
        <mxCell id="nvQuGseZhimio0jntBwH-28" value="T" style="text;html=1;align=center;verticalAlign=middle;whiteSpace=wrap;rounded=0;" vertex="1" parent="1">
          <mxGeometry x="460" y="460" width="60" height="30" as="geometry" />
        </mxCell>
        <mxCell id="nvQuGseZhimio0jntBwH-29" value="F" style="text;html=1;align=center;verticalAlign=middle;whiteSpace=wrap;rounded=0;" vertex="1" parent="1">
          <mxGeometry x="330" y="420" width="60" height="30" as="geometry" />
        </mxCell>
        <mxCell id="nvQuGseZhimio0jntBwH-30" value="score &amp;gt;= 6.5" style="rhombus;whiteSpace=wrap;html=1;" vertex="1" parent="1">
          <mxGeometry x="320" y="545" width="140" height="80" as="geometry" />
        </mxCell>
        <mxCell id="nvQuGseZhimio0jntBwH-31" value="" style="endArrow=classic;html=1;rounded=0;exitX=1;exitY=0.5;exitDx=0;exitDy=0;entryX=0;entryY=0.5;entryDx=0;entryDy=0;" edge="1" parent="1" source="nvQuGseZhimio0jntBwH-30" target="nvQuGseZhimio0jntBwH-6">
          <mxGeometry width="50" height="50" relative="1" as="geometry">
            <mxPoint x="460" y="560" as="sourcePoint" />
            <mxPoint x="510" y="510" as="targetPoint" />
          </mxGeometry>
        </mxCell>
        <mxCell id="nvQuGseZhimio0jntBwH-32" value="T" style="text;html=1;align=center;verticalAlign=middle;whiteSpace=wrap;rounded=0;" vertex="1" parent="1">
          <mxGeometry x="460" y="555" width="60" height="30" as="geometry" />
        </mxCell>
        <mxCell id="nvQuGseZhimio0jntBwH-33" value="" style="endArrow=classic;html=1;rounded=0;exitX=0.5;exitY=1;exitDx=0;exitDy=0;entryX=0.5;entryY=0;entryDx=0;entryDy=0;" edge="1" parent="1" source="nvQuGseZhimio0jntBwH-25" target="nvQuGseZhimio0jntBwH-30">
          <mxGeometry width="50" height="50" relative="1" as="geometry">
            <mxPoint x="460" y="560" as="sourcePoint" />
            <mxPoint x="510" y="510" as="targetPoint" />
          </mxGeometry>
        </mxCell>
        <mxCell id="nvQuGseZhimio0jntBwH-34" value="F" style="text;html=1;align=center;verticalAlign=middle;whiteSpace=wrap;rounded=0;" vertex="1" parent="1">
          <mxGeometry x="330" y="520" width="60" height="30" as="geometry" />
        </mxCell>
        <mxCell id="nvQuGseZhimio0jntBwH-35" value="score &amp;gt;= 5" style="rhombus;whiteSpace=wrap;html=1;" vertex="1" parent="1">
          <mxGeometry x="317.5" y="640" width="145" height="80" as="geometry" />
        </mxCell>
        <mxCell id="nvQuGseZhimio0jntBwH-36" value="" style="endArrow=classic;html=1;rounded=0;exitX=1;exitY=0.5;exitDx=0;exitDy=0;entryX=0;entryY=0.5;entryDx=0;entryDy=0;" edge="1" parent="1" source="nvQuGseZhimio0jntBwH-35" target="nvQuGseZhimio0jntBwH-7">
          <mxGeometry width="50" height="50" relative="1" as="geometry">
            <mxPoint x="460" y="700" as="sourcePoint" />
            <mxPoint x="510" y="650" as="targetPoint" />
          </mxGeometry>
        </mxCell>
        <mxCell id="nvQuGseZhimio0jntBwH-37" value="T" style="text;html=1;align=center;verticalAlign=middle;whiteSpace=wrap;rounded=0;" vertex="1" parent="1">
          <mxGeometry x="460" y="650" width="60" height="30" as="geometry" />
        </mxCell>
        <mxCell id="nvQuGseZhimio0jntBwH-38" value="" style="endArrow=classic;html=1;rounded=0;exitX=0.5;exitY=1;exitDx=0;exitDy=0;entryX=0.5;entryY=0;entryDx=0;entryDy=0;" edge="1" parent="1" source="nvQuGseZhimio0jntBwH-30" target="nvQuGseZhimio0jntBwH-35">
          <mxGeometry width="50" height="50" relative="1" as="geometry">
            <mxPoint x="460" y="700" as="sourcePoint" />
            <mxPoint x="510" y="650" as="targetPoint" />
          </mxGeometry>
        </mxCell>
        <mxCell id="nvQuGseZhimio0jntBwH-39" value="F" style="text;html=1;align=center;verticalAlign=middle;whiteSpace=wrap;rounded=0;" vertex="1" parent="1">
          <mxGeometry x="330" y="614.5" width="60" height="30" as="geometry" />
        </mxCell>
        <mxCell id="nvQuGseZhimio0jntBwH-40" value="" style="endArrow=classic;html=1;rounded=0;exitX=0.5;exitY=1;exitDx=0;exitDy=0;entryX=0.5;entryY=0;entryDx=0;entryDy=0;" edge="1" parent="1" source="nvQuGseZhimio0jntBwH-35" target="nvQuGseZhimio0jntBwH-8">
          <mxGeometry width="50" height="50" relative="1" as="geometry">
            <mxPoint x="460" y="760" as="sourcePoint" />
            <mxPoint x="510" y="710" as="targetPoint" />
          </mxGeometry>
        </mxCell>
        <mxCell id="nvQuGseZhimio0jntBwH-41" value="F" style="text;html=1;align=center;verticalAlign=middle;whiteSpace=wrap;rounded=0;" vertex="1" parent="1">
          <mxGeometry x="330" y="710" width="60" height="30" as="geometry" />
        </mxCell>
        <mxCell id="nvQuGseZhimio0jntBwH-42" value="" style="endArrow=classic;html=1;rounded=0;exitX=0.5;exitY=1;exitDx=0;exitDy=0;entryX=0.5;entryY=0;entryDx=0;entryDy=0;" edge="1" parent="1" source="nvQuGseZhimio0jntBwH-8" target="nvQuGseZhimio0jntBwH-9">
          <mxGeometry width="50" height="50" relative="1" as="geometry">
            <mxPoint x="460" y="830" as="sourcePoint" />
            <mxPoint x="510" y="780" as="targetPoint" />
          </mxGeometry>
        </mxCell>
        <mxCell id="nvQuGseZhimio0jntBwH-43" value="" style="endArrow=classic;html=1;rounded=0;exitX=0.5;exitY=1;exitDx=0;exitDy=0;entryX=0.5;entryY=0;entryDx=0;entryDy=0;" edge="1" parent="1" source="nvQuGseZhimio0jntBwH-9" target="nvQuGseZhimio0jntBwH-10">
          <mxGeometry width="50" height="50" relative="1" as="geometry">
            <mxPoint x="460" y="830" as="sourcePoint" />
            <mxPoint x="510" y="780" as="targetPoint" />
          </mxGeometry>
        </mxCell>
        <mxCell id="nvQuGseZhimio0jntBwH-45" value="" style="endArrow=none;html=1;rounded=0;exitX=1;exitY=0.5;exitDx=0;exitDy=0;" edge="1" parent="1" source="nvQuGseZhimio0jntBwH-3">
          <mxGeometry width="50" height="50" relative="1" as="geometry">
            <mxPoint x="510" y="620" as="sourcePoint" />
            <mxPoint x="760" y="280" as="targetPoint" />
          </mxGeometry>
        </mxCell>
        <mxCell id="nvQuGseZhimio0jntBwH-46" value="" style="endArrow=none;html=1;rounded=0;entryX=0.5;entryY=1;entryDx=0;entryDy=0;" edge="1" parent="1" target="nvQuGseZhimio0jntBwH-7">
          <mxGeometry width="50" height="50" relative="1" as="geometry">
            <mxPoint x="590" y="850" as="sourcePoint" />
            <mxPoint x="560" y="660" as="targetPoint" />
          </mxGeometry>
        </mxCell>
        <mxCell id="nvQuGseZhimio0jntBwH-47" value="" style="endArrow=classic;html=1;rounded=0;entryX=1.013;entryY=0.15;entryDx=0;entryDy=0;entryPerimeter=0;" edge="1" parent="1" target="nvQuGseZhimio0jntBwH-9">
          <mxGeometry width="50" height="50" relative="1" as="geometry">
            <mxPoint x="590" y="850" as="sourcePoint" />
            <mxPoint x="460" y="850" as="targetPoint" />
          </mxGeometry>
        </mxCell>
        <mxCell id="nvQuGseZhimio0jntBwH-48" value="" style="endArrow=none;html=1;rounded=0;entryX=1;entryY=0.5;entryDx=0;entryDy=0;" edge="1" parent="1" target="nvQuGseZhimio0jntBwH-4">
          <mxGeometry width="50" height="50" relative="1" as="geometry">
            <mxPoint x="730" y="390" as="sourcePoint" />
            <mxPoint x="620" y="520" as="targetPoint" />
          </mxGeometry>
        </mxCell>
        <mxCell id="nvQuGseZhimio0jntBwH-49" value="" style="endArrow=none;html=1;rounded=0;entryX=1;entryY=0.5;entryDx=0;entryDy=0;" edge="1" parent="1" target="nvQuGseZhimio0jntBwH-5">
          <mxGeometry width="50" height="50" relative="1" as="geometry">
            <mxPoint x="700" y="490" as="sourcePoint" />
            <mxPoint x="620" y="520" as="targetPoint" />
          </mxGeometry>
        </mxCell>
        <mxCell id="nvQuGseZhimio0jntBwH-52" value="" style="endArrow=classic;html=1;rounded=0;entryX=1;entryY=0.5;entryDx=0;entryDy=0;" edge="1" parent="1" target="nvQuGseZhimio0jntBwH-9">
          <mxGeometry width="50" height="50" relative="1" as="geometry">
            <mxPoint x="680" y="870" as="sourcePoint" />
            <mxPoint x="620" y="730" as="targetPoint" />
          </mxGeometry>
        </mxCell>
        <mxCell id="nvQuGseZhimio0jntBwH-56" value="" style="endArrow=none;html=1;rounded=0;" edge="1" parent="1">
          <mxGeometry width="50" height="50" relative="1" as="geometry">
            <mxPoint x="700" y="890" as="sourcePoint" />
            <mxPoint x="700" y="490" as="targetPoint" />
          </mxGeometry>
        </mxCell>
        <mxCell id="nvQuGseZhimio0jntBwH-57" value="" style="endArrow=classic;html=1;rounded=0;entryX=1.007;entryY=0.87;entryDx=0;entryDy=0;entryPerimeter=0;" edge="1" parent="1" target="nvQuGseZhimio0jntBwH-9">
          <mxGeometry width="50" height="50" relative="1" as="geometry">
            <mxPoint x="700" y="890" as="sourcePoint" />
            <mxPoint x="620" y="610" as="targetPoint" />
          </mxGeometry>
        </mxCell>
        <mxCell id="nvQuGseZhimio0jntBwH-58" value="" style="endArrow=none;html=1;rounded=0;" edge="1" parent="1">
          <mxGeometry width="50" height="50" relative="1" as="geometry">
            <mxPoint x="730" y="920" as="sourcePoint" />
            <mxPoint x="730" y="390" as="targetPoint" />
          </mxGeometry>
        </mxCell>
        <mxCell id="nvQuGseZhimio0jntBwH-62" value="" style="endArrow=none;html=1;rounded=0;" edge="1" parent="1">
          <mxGeometry width="50" height="50" relative="1" as="geometry">
            <mxPoint x="760" y="969.5999755859375" as="sourcePoint" />
            <mxPoint x="760" y="280" as="targetPoint" />
          </mxGeometry>
        </mxCell>
        <mxCell id="nvQuGseZhimio0jntBwH-63" value="" style="endArrow=classic;html=1;rounded=0;entryX=0.987;entryY=0.637;entryDx=0;entryDy=0;entryPerimeter=0;" edge="1" parent="1" target="nvQuGseZhimio0jntBwH-10">
          <mxGeometry width="50" height="50" relative="1" as="geometry">
            <mxPoint x="760" y="970" as="sourcePoint" />
            <mxPoint x="660" y="840" as="targetPoint" />
          </mxGeometry>
        </mxCell>
        <mxCell id="nvQuGseZhimio0jntBwH-66" value="" style="endArrow=none;html=1;rounded=0;entryX=1;entryY=0.5;entryDx=0;entryDy=0;" edge="1" parent="1" target="nvQuGseZhimio0jntBwH-6">
          <mxGeometry width="50" height="50" relative="1" as="geometry">
            <mxPoint x="680" y="580" as="sourcePoint" />
            <mxPoint x="580" y="630" as="targetPoint" />
          </mxGeometry>
        </mxCell>
        <mxCell id="nvQuGseZhimio0jntBwH-67" value="" style="endArrow=none;html=1;rounded=0;" edge="1" parent="1">
          <mxGeometry width="50" height="50" relative="1" as="geometry">
            <mxPoint x="680" y="870" as="sourcePoint" />
            <mxPoint x="680" y="580" as="targetPoint" />
          </mxGeometry>
        </mxCell>
        <mxCell id="nvQuGseZhimio0jntBwH-68" value="" style="endArrow=none;html=1;rounded=0;" edge="1" parent="1">
          <mxGeometry width="50" height="50" relative="1" as="geometry">
            <mxPoint x="730" y="920" as="sourcePoint" />
            <mxPoint x="440" y="920" as="targetPoint" />
          </mxGeometry>
        </mxCell>
        <mxCell id="nvQuGseZhimio0jntBwH-69" value="" style="endArrow=classic;html=1;rounded=0;entryX=0.907;entryY=0.968;entryDx=0;entryDy=0;entryPerimeter=0;" edge="1" parent="1" target="nvQuGseZhimio0jntBwH-9">
          <mxGeometry width="50" height="50" relative="1" as="geometry">
            <mxPoint x="440" y="920" as="sourcePoint" />
            <mxPoint x="580" y="660" as="targetPoint" />
          </mxGeometry>
        </mxCell>
        <mxCell id="nvQuGseZhimio0jntBwH-70" value="(0)" style="text;html=1;align=center;verticalAlign=middle;whiteSpace=wrap;rounded=0;" vertex="1" parent="1">
          <mxGeometry x="270" y="65" width="60" height="30" as="geometry" />
        </mxCell>
        <mxCell id="nvQuGseZhimio0jntBwH-71" value="(1)" style="text;html=1;align=center;verticalAlign=middle;whiteSpace=wrap;rounded=0;" vertex="1" parent="1">
          <mxGeometry x="270" y="165" width="60" height="30" as="geometry" />
        </mxCell>
        <mxCell id="nvQuGseZhimio0jntBwH-72" value="(2)" style="text;html=1;align=center;verticalAlign=middle;whiteSpace=wrap;rounded=0;" vertex="1" parent="1">
          <mxGeometry x="270" y="260" width="60" height="30" as="geometry" />
        </mxCell>
        <mxCell id="nvQuGseZhimio0jntBwH-73" value="(4)" style="text;html=1;align=center;verticalAlign=middle;whiteSpace=wrap;rounded=0;" vertex="1" parent="1">
          <mxGeometry x="270" y="370" width="60" height="30" as="geometry" />
        </mxCell>
        <mxCell id="nvQuGseZhimio0jntBwH-74" value="(6)" style="text;html=1;align=center;verticalAlign=middle;whiteSpace=wrap;rounded=0;" vertex="1" parent="1">
          <mxGeometry x="270" y="470" width="60" height="30" as="geometry" />
        </mxCell>
        <mxCell id="nvQuGseZhimio0jntBwH-75" value="(8)" style="text;html=1;align=center;verticalAlign=middle;whiteSpace=wrap;rounded=0;" vertex="1" parent="1">
          <mxGeometry x="270" y="565" width="60" height="30" as="geometry" />
        </mxCell>
        <mxCell id="nvQuGseZhimio0jntBwH-76" value="(10)" style="text;html=1;align=center;verticalAlign=middle;whiteSpace=wrap;rounded=0;" vertex="1" parent="1">
          <mxGeometry x="270" y="665" width="60" height="30" as="geometry" />
        </mxCell>
        <mxCell id="nvQuGseZhimio0jntBwH-77" value="(12)" style="text;html=1;align=center;verticalAlign=middle;whiteSpace=wrap;rounded=0;" vertex="1" parent="1">
          <mxGeometry x="270" y="765" width="60" height="30" as="geometry" />
        </mxCell>
        <mxCell id="nvQuGseZhimio0jntBwH-78" value="(13)" style="text;html=1;align=center;verticalAlign=middle;whiteSpace=wrap;rounded=0;" vertex="1" parent="1">
          <mxGeometry x="270" y="850" width="60" height="30" as="geometry" />
        </mxCell>
        <mxCell id="nvQuGseZhimio0jntBwH-79" value="(14)" style="text;html=1;align=center;verticalAlign=middle;whiteSpace=wrap;rounded=0;" vertex="1" parent="1">
          <mxGeometry x="270" y="945" width="60" height="30" as="geometry" />
        </mxCell>
        <mxCell id="nvQuGseZhimio0jntBwH-80" value="(3)" style="text;html=1;align=center;verticalAlign=middle;whiteSpace=wrap;rounded=0;" vertex="1" parent="1">
          <mxGeometry x="560" y="220" width="60" height="30" as="geometry" />
        </mxCell>
        <mxCell id="nvQuGseZhimio0jntBwH-81" value="(5)" style="text;html=1;align=center;verticalAlign=middle;whiteSpace=wrap;rounded=0;" vertex="1" parent="1">
          <mxGeometry x="560" y="330" width="60" height="30" as="geometry" />
        </mxCell>
        <mxCell id="nvQuGseZhimio0jntBwH-82" value="(7)" style="text;html=1;align=center;verticalAlign=middle;whiteSpace=wrap;rounded=0;" vertex="1" parent="1">
          <mxGeometry x="560" y="430" width="60" height="30" as="geometry" />
        </mxCell>
        <mxCell id="nvQuGseZhimio0jntBwH-83" value="(9)" style="text;html=1;align=center;verticalAlign=middle;whiteSpace=wrap;rounded=0;" vertex="1" parent="1">
          <mxGeometry x="560" y="525" width="60" height="30" as="geometry" />
        </mxCell>
        <mxCell id="nvQuGseZhimio0jntBwH-84" value="(11)" style="text;html=1;align=center;verticalAlign=middle;whiteSpace=wrap;rounded=0;" vertex="1" parent="1">
          <mxGeometry x="560" y="620" width="60" height="30" as="geometry" />
        </mxCell>
      </root>
    </mxGraphModel>
  </diagram>
  <diagram id="UNl3A2IzBFj4bjJTkspe" name="bÃ i 3">
    <mxGraphModel dx="1613" dy="706" grid="1" gridSize="10" guides="1" tooltips="1" connect="1" arrows="1" fold="1" page="1" pageScale="1" pageWidth="827" pageHeight="1169" math="0" shadow="0">
      <root>
        <mxCell id="0" />
        <mxCell id="1" parent="0" />
        <mxCell id="vRx-yDIfHms47ODll1kC-1" value="entry" style="rounded=0;whiteSpace=wrap;html=1;" vertex="1" parent="1">
          <mxGeometry x="170" y="50" width="120" height="60" as="geometry" />
        </mxCell>
        <mxCell id="vRx-yDIfHms47ODll1kC-2" value="int i = 0, total = 0" style="rounded=0;whiteSpace=wrap;html=1;" vertex="1" parent="1">
          <mxGeometry x="170" y="170" width="120" height="60" as="geometry" />
        </mxCell>
        <mxCell id="vRx-yDIfHms47ODll1kC-3" value="total = total + a[i]" style="rounded=0;whiteSpace=wrap;html=1;" vertex="1" parent="1">
          <mxGeometry x="170" y="460" width="120" height="60" as="geometry" />
        </mxCell>
        <mxCell id="vRx-yDIfHms47ODll1kC-4" value="i &amp;lt; n" style="rhombus;whiteSpace=wrap;html=1;" vertex="1" parent="1">
          <mxGeometry x="160" y="300" width="140" height="80" as="geometry" />
        </mxCell>
        <mxCell id="vRx-yDIfHms47ODll1kC-5" value="i++" style="rounded=0;whiteSpace=wrap;html=1;" vertex="1" parent="1">
          <mxGeometry x="10" y="380" width="120" height="60" as="geometry" />
        </mxCell>
        <mxCell id="vRx-yDIfHms47ODll1kC-6" value="return total" style="rounded=0;whiteSpace=wrap;html=1;" vertex="1" parent="1">
          <mxGeometry x="360" y="310" width="120" height="60" as="geometry" />
        </mxCell>
        <mxCell id="vRx-yDIfHms47ODll1kC-7" value="end" style="rounded=0;whiteSpace=wrap;html=1;" vertex="1" parent="1">
          <mxGeometry x="530" y="310" width="120" height="60" as="geometry" />
        </mxCell>
        <mxCell id="vRx-yDIfHms47ODll1kC-8" value="" style="endArrow=classic;html=1;rounded=0;exitX=0.5;exitY=1;exitDx=0;exitDy=0;entryX=0.5;entryY=0;entryDx=0;entryDy=0;" edge="1" parent="1" source="vRx-yDIfHms47ODll1kC-1" target="vRx-yDIfHms47ODll1kC-2">
          <mxGeometry width="50" height="50" relative="1" as="geometry">
            <mxPoint x="310" y="310" as="sourcePoint" />
            <mxPoint x="360" y="260" as="targetPoint" />
          </mxGeometry>
        </mxCell>
        <mxCell id="vRx-yDIfHms47ODll1kC-9" value="" style="endArrow=classic;html=1;rounded=0;exitX=0.5;exitY=1;exitDx=0;exitDy=0;entryX=0.5;entryY=0;entryDx=0;entryDy=0;" edge="1" parent="1" source="vRx-yDIfHms47ODll1kC-2" target="vRx-yDIfHms47ODll1kC-4">
          <mxGeometry width="50" height="50" relative="1" as="geometry">
            <mxPoint x="310" y="310" as="sourcePoint" />
            <mxPoint x="360" y="260" as="targetPoint" />
          </mxGeometry>
        </mxCell>
        <mxCell id="vRx-yDIfHms47ODll1kC-10" value="" style="endArrow=classic;html=1;rounded=0;exitX=0.5;exitY=1;exitDx=0;exitDy=0;entryX=0.5;entryY=0;entryDx=0;entryDy=0;" edge="1" parent="1" source="vRx-yDIfHms47ODll1kC-4" target="vRx-yDIfHms47ODll1kC-3">
          <mxGeometry width="50" height="50" relative="1" as="geometry">
            <mxPoint x="310" y="310" as="sourcePoint" />
            <mxPoint x="360" y="260" as="targetPoint" />
          </mxGeometry>
        </mxCell>
        <mxCell id="vRx-yDIfHms47ODll1kC-11" value="" style="endArrow=classic;html=1;rounded=0;exitX=1;exitY=0.5;exitDx=0;exitDy=0;entryX=0;entryY=0.5;entryDx=0;entryDy=0;" edge="1" parent="1" source="vRx-yDIfHms47ODll1kC-4" target="vRx-yDIfHms47ODll1kC-6">
          <mxGeometry width="50" height="50" relative="1" as="geometry">
            <mxPoint x="310" y="310" as="sourcePoint" />
            <mxPoint x="360" y="260" as="targetPoint" />
          </mxGeometry>
        </mxCell>
        <mxCell id="vRx-yDIfHms47ODll1kC-12" value="" style="endArrow=classic;html=1;rounded=0;exitX=1;exitY=0.5;exitDx=0;exitDy=0;entryX=0;entryY=0.5;entryDx=0;entryDy=0;" edge="1" parent="1" source="vRx-yDIfHms47ODll1kC-6" target="vRx-yDIfHms47ODll1kC-7">
          <mxGeometry width="50" height="50" relative="1" as="geometry">
            <mxPoint x="310" y="310" as="sourcePoint" />
            <mxPoint x="360" y="260" as="targetPoint" />
          </mxGeometry>
        </mxCell>
        <mxCell id="vRx-yDIfHms47ODll1kC-13" value="" style="endArrow=none;html=1;rounded=0;exitX=0;exitY=0.5;exitDx=0;exitDy=0;" edge="1" parent="1" source="vRx-yDIfHms47ODll1kC-3">
          <mxGeometry width="50" height="50" relative="1" as="geometry">
            <mxPoint x="310" y="310" as="sourcePoint" />
            <mxPoint x="70" y="490" as="targetPoint" />
          </mxGeometry>
        </mxCell>
        <mxCell id="vRx-yDIfHms47ODll1kC-14" value="" style="endArrow=classic;html=1;rounded=0;entryX=0.5;entryY=1;entryDx=0;entryDy=0;" edge="1" parent="1" target="vRx-yDIfHms47ODll1kC-5">
          <mxGeometry width="50" height="50" relative="1" as="geometry">
            <mxPoint x="70" y="490" as="sourcePoint" />
            <mxPoint x="360" y="260" as="targetPoint" />
          </mxGeometry>
        </mxCell>
        <mxCell id="vRx-yDIfHms47ODll1kC-15" value="" style="endArrow=none;html=1;rounded=0;exitX=0.5;exitY=0;exitDx=0;exitDy=0;" edge="1" parent="1" source="vRx-yDIfHms47ODll1kC-5">
          <mxGeometry width="50" height="50" relative="1" as="geometry">
            <mxPoint x="310" y="310" as="sourcePoint" />
            <mxPoint x="70" y="340" as="targetPoint" />
          </mxGeometry>
        </mxCell>
        <mxCell id="vRx-yDIfHms47ODll1kC-16" value="" style="endArrow=classic;html=1;rounded=0;entryX=0;entryY=0.5;entryDx=0;entryDy=0;" edge="1" parent="1" target="vRx-yDIfHms47ODll1kC-4">
          <mxGeometry width="50" height="50" relative="1" as="geometry">
            <mxPoint x="70" y="340" as="sourcePoint" />
            <mxPoint x="360" y="260" as="targetPoint" />
          </mxGeometry>
        </mxCell>
        <mxCell id="vRx-yDIfHms47ODll1kC-17" value="(0)" style="text;html=1;align=center;verticalAlign=middle;whiteSpace=wrap;rounded=0;" vertex="1" parent="1">
          <mxGeometry x="110" y="60" width="60" height="30" as="geometry" />
        </mxCell>
        <mxCell id="vRx-yDIfHms47ODll1kC-19" value="(1)" style="text;html=1;align=center;verticalAlign=middle;whiteSpace=wrap;rounded=0;" vertex="1" parent="1">
          <mxGeometry x="110" y="180" width="60" height="30" as="geometry" />
        </mxCell>
        <mxCell id="vRx-yDIfHms47ODll1kC-20" value="(2)" style="text;html=1;align=center;verticalAlign=middle;whiteSpace=wrap;rounded=0;" vertex="1" parent="1">
          <mxGeometry x="160" y="290" width="60" height="30" as="geometry" />
        </mxCell>
        <mxCell id="vRx-yDIfHms47ODll1kC-21" value="(3)" style="text;html=1;align=center;verticalAlign=middle;whiteSpace=wrap;rounded=0;" vertex="1" parent="1">
          <mxGeometry x="390" y="280" width="60" height="30" as="geometry" />
        </mxCell>
        <mxCell id="vRx-yDIfHms47ODll1kC-22" value="(6)" style="text;html=1;align=center;verticalAlign=middle;whiteSpace=wrap;rounded=0;" vertex="1" parent="1">
          <mxGeometry x="560" y="280" width="60" height="30" as="geometry" />
        </mxCell>
        <mxCell id="vRx-yDIfHms47ODll1kC-23" value="(4)" style="text;html=1;align=center;verticalAlign=middle;whiteSpace=wrap;rounded=0;" vertex="1" parent="1">
          <mxGeometry x="160" y="430" width="60" height="30" as="geometry" />
        </mxCell>
        <mxCell id="vRx-yDIfHms47ODll1kC-24" value="(5)" style="text;html=1;align=center;verticalAlign=middle;whiteSpace=wrap;rounded=0;" vertex="1" parent="1">
          <mxGeometry x="10" y="350" width="60" height="30" as="geometry" />
        </mxCell>
        <mxCell id="vRx-yDIfHms47ODll1kC-25" value="F" style="text;html=1;align=center;verticalAlign=middle;whiteSpace=wrap;rounded=0;" vertex="1" parent="1">
          <mxGeometry x="300" y="310" width="60" height="30" as="geometry" />
        </mxCell>
        <mxCell id="vRx-yDIfHms47ODll1kC-26" value="T" style="text;html=1;align=center;verticalAlign=middle;whiteSpace=wrap;rounded=0;" vertex="1" parent="1">
          <mxGeometry x="210" y="400" width="60" height="30" as="geometry" />
        </mxCell>
      </root>
    </mxGraphModel>
  </diagram>
  <diagram id="WazqRIP6kvf09jq3wgmp" name="bÃ i 4">
    <mxGraphModel dx="2117" dy="565" grid="1" gridSize="10" guides="1" tooltips="1" connect="1" arrows="1" fold="1" page="1" pageScale="1" pageWidth="827" pageHeight="1169" math="0" shadow="0">
      <root>
        <mxCell id="0" />
        <mxCell id="1" parent="0" />
        <mxCell id="4um1xhphMCZYzZUjrRca-1" value="entry" style="rounded=0;whiteSpace=wrap;html=1;" parent="1" vertex="1">
          <mxGeometry x="-448" y="130" width="120" height="60" as="geometry" />
        </mxCell>
        <mxCell id="4um1xhphMCZYzZUjrRca-2" value="string res" style="rounded=0;whiteSpace=wrap;html=1;" parent="1" vertex="1">
          <mxGeometry x="-448" y="230" width="120" height="60" as="geometry" />
        </mxCell>
        <mxCell id="4um1xhphMCZYzZUjrRca-3" value="res = &quot;A&quot;" style="rounded=0;whiteSpace=wrap;html=1;" parent="1" vertex="1">
          <mxGeometry x="-688" y="460" width="120" height="60" as="geometry" />
        </mxCell>
        <mxCell id="4um1xhphMCZYzZUjrRca-4" value="x" style="rhombus;whiteSpace=wrap;html=1;" parent="1" vertex="1">
          <mxGeometry x="-448" y="320" width="120" height="80" as="geometry" />
        </mxCell>
        <mxCell id="4um1xhphMCZYzZUjrRca-5" value="res = &quot;B&quot;" style="rounded=0;whiteSpace=wrap;html=1;" parent="1" vertex="1">
          <mxGeometry x="-528" y="460" width="120" height="60" as="geometry" />
        </mxCell>
        <mxCell id="4um1xhphMCZYzZUjrRca-6" value="res = &quot;C&quot;" style="rounded=0;whiteSpace=wrap;html=1;" parent="1" vertex="1">
          <mxGeometry x="-368" y="460" width="120" height="60" as="geometry" />
        </mxCell>
        <mxCell id="4um1xhphMCZYzZUjrRca-7" value="res = &quot;haven&#39;t check&quot;" style="rounded=0;whiteSpace=wrap;html=1;" parent="1" vertex="1">
          <mxGeometry x="-208" y="460" width="120" height="60" as="geometry" />
        </mxCell>
        <mxCell id="4um1xhphMCZYzZUjrRca-8" value="return res" style="rounded=0;whiteSpace=wrap;html=1;" parent="1" vertex="1">
          <mxGeometry x="-448" y="570" width="120" height="60" as="geometry" />
        </mxCell>
        <mxCell id="4um1xhphMCZYzZUjrRca-9" value="exit" style="rounded=0;whiteSpace=wrap;html=1;" parent="1" vertex="1">
          <mxGeometry x="-448" y="660" width="120" height="60" as="geometry" />
        </mxCell>
        <mxCell id="4um1xhphMCZYzZUjrRca-11" value="" style="endArrow=classic;html=1;rounded=0;exitX=0.5;exitY=1;exitDx=0;exitDy=0;entryX=0.5;entryY=0;entryDx=0;entryDy=0;" parent="1" source="4um1xhphMCZYzZUjrRca-1" target="4um1xhphMCZYzZUjrRca-2" edge="1">
          <mxGeometry width="50" height="50" relative="1" as="geometry">
            <mxPoint x="-418" y="430" as="sourcePoint" />
            <mxPoint x="-368" y="380" as="targetPoint" />
          </mxGeometry>
        </mxCell>
        <mxCell id="4um1xhphMCZYzZUjrRca-12" value="" style="endArrow=classic;html=1;rounded=0;exitX=0.5;exitY=1;exitDx=0;exitDy=0;entryX=0.5;entryY=0;entryDx=0;entryDy=0;" parent="1" source="4um1xhphMCZYzZUjrRca-2" target="4um1xhphMCZYzZUjrRca-4" edge="1">
          <mxGeometry width="50" height="50" relative="1" as="geometry">
            <mxPoint x="-418" y="430" as="sourcePoint" />
            <mxPoint x="-368" y="380" as="targetPoint" />
          </mxGeometry>
        </mxCell>
        <mxCell id="4um1xhphMCZYzZUjrRca-13" value="" style="endArrow=classic;html=1;rounded=0;exitX=0.5;exitY=1;exitDx=0;exitDy=0;entryX=0.5;entryY=0;entryDx=0;entryDy=0;" parent="1" source="4um1xhphMCZYzZUjrRca-4" target="4um1xhphMCZYzZUjrRca-3" edge="1">
          <mxGeometry width="50" height="50" relative="1" as="geometry">
            <mxPoint x="-418" y="430" as="sourcePoint" />
            <mxPoint x="-368" y="380" as="targetPoint" />
          </mxGeometry>
        </mxCell>
        <mxCell id="4um1xhphMCZYzZUjrRca-14" value="" style="endArrow=classic;html=1;rounded=0;entryX=0.5;entryY=0;entryDx=0;entryDy=0;" parent="1" target="4um1xhphMCZYzZUjrRca-5" edge="1">
          <mxGeometry width="50" height="50" relative="1" as="geometry">
            <mxPoint x="-388" y="400" as="sourcePoint" />
            <mxPoint x="-368" y="380" as="targetPoint" />
          </mxGeometry>
        </mxCell>
        <mxCell id="4um1xhphMCZYzZUjrRca-15" value="" style="endArrow=classic;html=1;rounded=0;entryX=0.5;entryY=0;entryDx=0;entryDy=0;" parent="1" target="4um1xhphMCZYzZUjrRca-6" edge="1">
          <mxGeometry width="50" height="50" relative="1" as="geometry">
            <mxPoint x="-388" y="400" as="sourcePoint" />
            <mxPoint x="-368" y="380" as="targetPoint" />
          </mxGeometry>
        </mxCell>
        <mxCell id="4um1xhphMCZYzZUjrRca-16" value="" style="endArrow=classic;html=1;rounded=0;entryX=0.5;entryY=0;entryDx=0;entryDy=0;exitX=0.5;exitY=1;exitDx=0;exitDy=0;" parent="1" source="4um1xhphMCZYzZUjrRca-4" target="4um1xhphMCZYzZUjrRca-7" edge="1">
          <mxGeometry width="50" height="50" relative="1" as="geometry">
            <mxPoint x="-418" y="430" as="sourcePoint" />
            <mxPoint x="-368" y="380" as="targetPoint" />
          </mxGeometry>
        </mxCell>
        <mxCell id="4um1xhphMCZYzZUjrRca-17" value="" style="endArrow=classic;html=1;rounded=0;exitX=0.5;exitY=1;exitDx=0;exitDy=0;entryX=0.5;entryY=0;entryDx=0;entryDy=0;" parent="1" source="4um1xhphMCZYzZUjrRca-5" target="4um1xhphMCZYzZUjrRca-8" edge="1">
          <mxGeometry width="50" height="50" relative="1" as="geometry">
            <mxPoint x="-418" y="480" as="sourcePoint" />
            <mxPoint x="-368" y="430" as="targetPoint" />
          </mxGeometry>
        </mxCell>
        <mxCell id="4um1xhphMCZYzZUjrRca-18" value="" style="endArrow=classic;html=1;rounded=0;exitX=0.5;exitY=1;exitDx=0;exitDy=0;entryX=0.5;entryY=0;entryDx=0;entryDy=0;" parent="1" source="4um1xhphMCZYzZUjrRca-6" target="4um1xhphMCZYzZUjrRca-8" edge="1">
          <mxGeometry width="50" height="50" relative="1" as="geometry">
            <mxPoint x="-418" y="480" as="sourcePoint" />
            <mxPoint x="-368" y="430" as="targetPoint" />
          </mxGeometry>
        </mxCell>
        <mxCell id="4um1xhphMCZYzZUjrRca-19" value="" style="endArrow=classic;html=1;rounded=0;exitX=0.5;exitY=1;exitDx=0;exitDy=0;" parent="1" source="4um1xhphMCZYzZUjrRca-7" edge="1">
          <mxGeometry width="50" height="50" relative="1" as="geometry">
            <mxPoint x="-418" y="480" as="sourcePoint" />
            <mxPoint x="-388" y="570" as="targetPoint" />
          </mxGeometry>
        </mxCell>
        <mxCell id="4um1xhphMCZYzZUjrRca-20" value="" style="endArrow=classic;html=1;rounded=0;exitX=0.5;exitY=1;exitDx=0;exitDy=0;entryX=0.5;entryY=0;entryDx=0;entryDy=0;" parent="1" source="4um1xhphMCZYzZUjrRca-3" target="4um1xhphMCZYzZUjrRca-8" edge="1">
          <mxGeometry width="50" height="50" relative="1" as="geometry">
            <mxPoint x="-418" y="480" as="sourcePoint" />
            <mxPoint x="-368" y="430" as="targetPoint" />
          </mxGeometry>
        </mxCell>
        <mxCell id="4um1xhphMCZYzZUjrRca-21" value="" style="endArrow=classic;html=1;rounded=0;exitX=0.5;exitY=1;exitDx=0;exitDy=0;entryX=0.5;entryY=0;entryDx=0;entryDy=0;" parent="1" source="4um1xhphMCZYzZUjrRca-8" target="4um1xhphMCZYzZUjrRca-9" edge="1">
          <mxGeometry width="50" height="50" relative="1" as="geometry">
            <mxPoint x="-418" y="480" as="sourcePoint" />
            <mxPoint x="-368" y="430" as="targetPoint" />
          </mxGeometry>
        </mxCell>
        <mxCell id="4um1xhphMCZYzZUjrRca-22" value="(0)" style="text;html=1;align=center;verticalAlign=middle;whiteSpace=wrap;rounded=0;" parent="1" vertex="1">
          <mxGeometry x="-508" y="145" width="60" height="30" as="geometry" />
        </mxCell>
        <mxCell id="4um1xhphMCZYzZUjrRca-23" value="(1)" style="text;html=1;align=center;verticalAlign=middle;whiteSpace=wrap;rounded=0;" parent="1" vertex="1">
          <mxGeometry x="-508" y="245" width="60" height="30" as="geometry" />
        </mxCell>
        <mxCell id="4um1xhphMCZYzZUjrRca-24" value="(2)" style="text;html=1;align=center;verticalAlign=middle;whiteSpace=wrap;rounded=0;" parent="1" vertex="1">
          <mxGeometry x="-508" y="345" width="60" height="30" as="geometry" />
        </mxCell>
        <mxCell id="4um1xhphMCZYzZUjrRca-25" value="(3)" style="text;html=1;align=center;verticalAlign=middle;whiteSpace=wrap;rounded=0;" parent="1" vertex="1">
          <mxGeometry x="-738" y="475" width="60" height="30" as="geometry" />
        </mxCell>
        <mxCell id="4um1xhphMCZYzZUjrRca-26" value="(4)" style="text;html=1;align=center;verticalAlign=middle;whiteSpace=wrap;rounded=0;" parent="1" vertex="1">
          <mxGeometry x="-578" y="475" width="60" height="30" as="geometry" />
        </mxCell>
        <mxCell id="4um1xhphMCZYzZUjrRca-27" value="(5)" style="text;html=1;align=center;verticalAlign=middle;whiteSpace=wrap;rounded=0;" parent="1" vertex="1">
          <mxGeometry x="-418" y="475" width="60" height="30" as="geometry" />
        </mxCell>
        <mxCell id="4um1xhphMCZYzZUjrRca-28" value="x = 65" style="text;html=1;align=center;verticalAlign=middle;whiteSpace=wrap;rounded=0;" parent="1" vertex="1">
          <mxGeometry x="-558" y="400" width="60" height="30" as="geometry" />
        </mxCell>
        <mxCell id="4um1xhphMCZYzZUjrRca-29" value="(6)" style="text;html=1;align=center;verticalAlign=middle;whiteSpace=wrap;rounded=0;" parent="1" vertex="1">
          <mxGeometry x="-258" y="475" width="60" height="30" as="geometry" />
        </mxCell>
        <mxCell id="4um1xhphMCZYzZUjrRca-30" value="(7)" style="text;html=1;align=center;verticalAlign=middle;whiteSpace=wrap;rounded=0;" parent="1" vertex="1">
          <mxGeometry x="-508" y="585" width="60" height="30" as="geometry" />
        </mxCell>
        <mxCell id="4um1xhphMCZYzZUjrRca-31" value="(8)" style="text;html=1;align=center;verticalAlign=middle;whiteSpace=wrap;rounded=0;" parent="1" vertex="1">
          <mxGeometry x="-508" y="675" width="60" height="30" as="geometry" />
        </mxCell>
        <mxCell id="4um1xhphMCZYzZUjrRca-32" value="x = 66" style="text;html=1;align=center;verticalAlign=middle;whiteSpace=wrap;rounded=0;" parent="1" vertex="1">
          <mxGeometry x="-498" y="420" width="60" height="30" as="geometry" />
        </mxCell>
        <mxCell id="4um1xhphMCZYzZUjrRca-33" value="x = 67" style="text;html=1;align=center;verticalAlign=middle;whiteSpace=wrap;rounded=0;" parent="1" vertex="1">
          <mxGeometry x="-338" y="420" width="60" height="30" as="geometry" />
        </mxCell>
        <mxCell id="4um1xhphMCZYzZUjrRca-34" value="default" style="text;html=1;align=center;verticalAlign=middle;whiteSpace=wrap;rounded=0;" parent="1" vertex="1">
          <mxGeometry x="-278" y="400" width="60" height="30" as="geometry" />
        </mxCell>
      </root>
    </mxGraphModel>
  </diagram>
  <diagram id="arWOiJsoZDuIR-w34Bhz" name="bÃ i 5">
    <mxGraphModel dx="1720" dy="753" grid="1" gridSize="10" guides="1" tooltips="1" connect="1" arrows="1" fold="1" page="1" pageScale="1" pageWidth="827" pageHeight="1169" math="0" shadow="0">
      <root>
        <mxCell id="0" />
        <mxCell id="1" parent="0" />
        <mxCell id="FaWjhztN8qlUrvbQBv4B-11" value="" style="edgeStyle=orthogonalEdgeStyle;rounded=0;orthogonalLoop=1;jettySize=auto;html=1;" edge="1" parent="1" source="FaWjhztN8qlUrvbQBv4B-1" target="FaWjhztN8qlUrvbQBv4B-4">
          <mxGeometry relative="1" as="geometry" />
        </mxCell>
        <mxCell id="FaWjhztN8qlUrvbQBv4B-1" value="entry" style="rounded=0;whiteSpace=wrap;html=1;" vertex="1" parent="1">
          <mxGeometry x="250" y="100" width="120" height="60" as="geometry" />
        </mxCell>
        <mxCell id="FaWjhztN8qlUrvbQBv4B-3" value="tong_tien *= 0.8" style="rounded=0;whiteSpace=wrap;html=1;" vertex="1" parent="1">
          <mxGeometry x="50" y="770" width="120" height="60" as="geometry" />
        </mxCell>
        <mxCell id="FaWjhztN8qlUrvbQBv4B-10" value="" style="edgeStyle=orthogonalEdgeStyle;rounded=0;orthogonalLoop=1;jettySize=auto;html=1;" edge="1" parent="1" source="FaWjhztN8qlUrvbQBv4B-4" target="FaWjhztN8qlUrvbQBv4B-6">
          <mxGeometry relative="1" as="geometry" />
        </mxCell>
        <mxCell id="FaWjhztN8qlUrvbQBv4B-4" value="so_ve_thuong &amp;lt; 0 || so_ve_thÆ°Æ¡ng &amp;gt; 10000" style="rhombus;whiteSpace=wrap;html=1;" vertex="1" parent="1">
          <mxGeometry x="220" y="210" width="180" height="80" as="geometry" />
        </mxCell>
        <mxCell id="FaWjhztN8qlUrvbQBv4B-5" value="return -1" style="rounded=0;whiteSpace=wrap;html=1;" vertex="1" parent="1">
          <mxGeometry x="460" y="440" width="120" height="60" as="geometry" />
        </mxCell>
        <mxCell id="FaWjhztN8qlUrvbQBv4B-12" value="" style="edgeStyle=orthogonalEdgeStyle;rounded=0;orthogonalLoop=1;jettySize=auto;html=1;" edge="1" parent="1" source="FaWjhztN8qlUrvbQBv4B-6" target="FaWjhztN8qlUrvbQBv4B-8">
          <mxGeometry relative="1" as="geometry">
            <Array as="points">
              <mxPoint x="310" y="420" />
              <mxPoint x="310" y="420" />
            </Array>
          </mxGeometry>
        </mxCell>
        <mxCell id="FaWjhztN8qlUrvbQBv4B-6" value="so_ve_vip &amp;lt; 0 || so_ve_vip &amp;gt; 10000" style="rhombus;whiteSpace=wrap;html=1;" vertex="1" parent="1">
          <mxGeometry x="197.5" y="320" width="225" height="80" as="geometry" />
        </mxCell>
        <mxCell id="FaWjhztN8qlUrvbQBv4B-7" value="tong_tien *= 0.9" style="rounded=0;whiteSpace=wrap;html=1;" vertex="1" parent="1">
          <mxGeometry x="460" y="890" width="120" height="60" as="geometry" />
        </mxCell>
        <mxCell id="FaWjhztN8qlUrvbQBv4B-13" value="" style="edgeStyle=orthogonalEdgeStyle;rounded=0;orthogonalLoop=1;jettySize=auto;html=1;" edge="1" parent="1" source="FaWjhztN8qlUrvbQBv4B-8" target="FaWjhztN8qlUrvbQBv4B-5">
          <mxGeometry relative="1" as="geometry" />
        </mxCell>
        <mxCell id="FaWjhztN8qlUrvbQBv4B-23" value="" style="edgeStyle=orthogonalEdgeStyle;rounded=0;orthogonalLoop=1;jettySize=auto;html=1;" edge="1" parent="1" source="FaWjhztN8qlUrvbQBv4B-8" target="FaWjhztN8qlUrvbQBv4B-22">
          <mxGeometry relative="1" as="geometry" />
        </mxCell>
        <mxCell id="FaWjhztN8qlUrvbQBv4B-8" value="tuoi &amp;lt;= 0 || tuoi &amp;gt; 150" style="rhombus;whiteSpace=wrap;html=1;" vertex="1" parent="1">
          <mxGeometry x="220" y="430" width="180" height="80" as="geometry" />
        </mxCell>
        <mxCell id="FaWjhztN8qlUrvbQBv4B-18" value="" style="endArrow=none;html=1;rounded=0;exitX=1;exitY=0.5;exitDx=0;exitDy=0;" edge="1" parent="1" source="FaWjhztN8qlUrvbQBv4B-6">
          <mxGeometry width="50" height="50" relative="1" as="geometry">
            <mxPoint x="360" y="390" as="sourcePoint" />
            <mxPoint x="480" y="360" as="targetPoint" />
          </mxGeometry>
        </mxCell>
        <mxCell id="FaWjhztN8qlUrvbQBv4B-19" value="" style="endArrow=classic;html=1;rounded=0;entryX=0.177;entryY=0.017;entryDx=0;entryDy=0;entryPerimeter=0;" edge="1" parent="1" target="FaWjhztN8qlUrvbQBv4B-5">
          <mxGeometry width="50" height="50" relative="1" as="geometry">
            <mxPoint x="480" y="360" as="sourcePoint" />
            <mxPoint x="410" y="340" as="targetPoint" />
          </mxGeometry>
        </mxCell>
        <mxCell id="FaWjhztN8qlUrvbQBv4B-20" value="" style="endArrow=none;html=1;rounded=0;exitX=1;exitY=0.5;exitDx=0;exitDy=0;" edge="1" parent="1" source="FaWjhztN8qlUrvbQBv4B-4">
          <mxGeometry width="50" height="50" relative="1" as="geometry">
            <mxPoint x="360" y="390" as="sourcePoint" />
            <mxPoint x="520" y="250" as="targetPoint" />
          </mxGeometry>
        </mxCell>
        <mxCell id="FaWjhztN8qlUrvbQBv4B-21" value="" style="endArrow=classic;html=1;rounded=0;entryX=0.5;entryY=0;entryDx=0;entryDy=0;" edge="1" parent="1" target="FaWjhztN8qlUrvbQBv4B-5">
          <mxGeometry width="50" height="50" relative="1" as="geometry">
            <mxPoint x="520" y="250" as="sourcePoint" />
            <mxPoint x="410" y="340" as="targetPoint" />
          </mxGeometry>
        </mxCell>
        <mxCell id="FaWjhztN8qlUrvbQBv4B-25" value="" style="edgeStyle=orthogonalEdgeStyle;rounded=0;orthogonalLoop=1;jettySize=auto;html=1;" edge="1" parent="1" source="FaWjhztN8qlUrvbQBv4B-22" target="FaWjhztN8qlUrvbQBv4B-24">
          <mxGeometry relative="1" as="geometry" />
        </mxCell>
        <mxCell id="FaWjhztN8qlUrvbQBv4B-22" value="int gia_ve_thuong = 10, gia_ve_vip = 20" style="rounded=0;whiteSpace=wrap;html=1;" vertex="1" parent="1">
          <mxGeometry x="237.39000000000001" y="554.5" width="145.22" height="60" as="geometry" />
        </mxCell>
        <mxCell id="FaWjhztN8qlUrvbQBv4B-27" value="" style="edgeStyle=orthogonalEdgeStyle;rounded=0;orthogonalLoop=1;jettySize=auto;html=1;" edge="1" parent="1" source="FaWjhztN8qlUrvbQBv4B-24" target="FaWjhztN8qlUrvbQBv4B-26">
          <mxGeometry relative="1" as="geometry" />
        </mxCell>
        <mxCell id="FaWjhztN8qlUrvbQBv4B-24" value="float tong_tien = (so_ve_thuong * gia_ve_thuong) + (so_ve_vip * gia_ve_vip)" style="rounded=0;whiteSpace=wrap;html=1;" vertex="1" parent="1">
          <mxGeometry x="240" y="660" width="140" height="60" as="geometry" />
        </mxCell>
        <mxCell id="FaWjhztN8qlUrvbQBv4B-28" value="" style="edgeStyle=orthogonalEdgeStyle;rounded=0;orthogonalLoop=1;jettySize=auto;html=1;" edge="1" parent="1" source="FaWjhztN8qlUrvbQBv4B-26" target="FaWjhztN8qlUrvbQBv4B-3">
          <mxGeometry relative="1" as="geometry" />
        </mxCell>
        <mxCell id="FaWjhztN8qlUrvbQBv4B-31" value="" style="edgeStyle=orthogonalEdgeStyle;rounded=0;orthogonalLoop=1;jettySize=auto;html=1;" edge="1" parent="1" source="FaWjhztN8qlUrvbQBv4B-26" target="FaWjhztN8qlUrvbQBv4B-30">
          <mxGeometry relative="1" as="geometry" />
        </mxCell>
        <mxCell id="FaWjhztN8qlUrvbQBv4B-26" value="(tuoi &amp;lt;= 14 || tuoi &amp;gt;= 65) &amp;amp;&amp;amp; khach_hang_than_thiet" style="rhombus;whiteSpace=wrap;html=1;" vertex="1" parent="1">
          <mxGeometry x="205" y="760" width="210" height="80" as="geometry" />
        </mxCell>
        <mxCell id="FaWjhztN8qlUrvbQBv4B-32" value="" style="edgeStyle=orthogonalEdgeStyle;rounded=0;orthogonalLoop=1;jettySize=auto;html=1;" edge="1" parent="1" source="FaWjhztN8qlUrvbQBv4B-30" target="FaWjhztN8qlUrvbQBv4B-7">
          <mxGeometry relative="1" as="geometry" />
        </mxCell>
        <mxCell id="FaWjhztN8qlUrvbQBv4B-38" value="" style="edgeStyle=orthogonalEdgeStyle;rounded=0;orthogonalLoop=1;jettySize=auto;html=1;" edge="1" parent="1" source="FaWjhztN8qlUrvbQBv4B-30" target="FaWjhztN8qlUrvbQBv4B-33">
          <mxGeometry relative="1" as="geometry" />
        </mxCell>
        <mxCell id="FaWjhztN8qlUrvbQBv4B-30" value="(tuoi &amp;lt;= 14 || tuoi &amp;gt;= 65) || khach_hang_than_thiet" style="rhombus;whiteSpace=wrap;html=1;" vertex="1" parent="1">
          <mxGeometry x="205" y="880" width="210" height="80" as="geometry" />
        </mxCell>
        <mxCell id="FaWjhztN8qlUrvbQBv4B-37" value="" style="edgeStyle=orthogonalEdgeStyle;rounded=0;orthogonalLoop=1;jettySize=auto;html=1;" edge="1" parent="1" source="FaWjhztN8qlUrvbQBv4B-33" target="FaWjhztN8qlUrvbQBv4B-34">
          <mxGeometry relative="1" as="geometry" />
        </mxCell>
        <mxCell id="FaWjhztN8qlUrvbQBv4B-33" value="return tong_tien" style="rounded=0;whiteSpace=wrap;html=1;" vertex="1" parent="1">
          <mxGeometry x="250" y="1010" width="120" height="60" as="geometry" />
        </mxCell>
        <mxCell id="FaWjhztN8qlUrvbQBv4B-34" value="exit" style="rounded=0;whiteSpace=wrap;html=1;" vertex="1" parent="1">
          <mxGeometry x="250" y="1109" width="120" height="60" as="geometry" />
        </mxCell>
        <mxCell id="FaWjhztN8qlUrvbQBv4B-35" value="" style="endArrow=none;html=1;rounded=0;" edge="1" parent="1">
          <mxGeometry width="50" height="50" relative="1" as="geometry">
            <mxPoint x="110" y="830" as="sourcePoint" />
            <mxPoint x="110" y="1040" as="targetPoint" />
          </mxGeometry>
        </mxCell>
        <mxCell id="FaWjhztN8qlUrvbQBv4B-39" value="" style="endArrow=none;html=1;rounded=0;exitX=0.5;exitY=1;exitDx=0;exitDy=0;" edge="1" parent="1" source="FaWjhztN8qlUrvbQBv4B-7">
          <mxGeometry width="50" height="50" relative="1" as="geometry">
            <mxPoint x="500" y="960" as="sourcePoint" />
            <mxPoint x="520" y="1040" as="targetPoint" />
          </mxGeometry>
        </mxCell>
        <mxCell id="FaWjhztN8qlUrvbQBv4B-44" value="" style="endArrow=classic;html=1;rounded=0;entryX=1;entryY=0.5;entryDx=0;entryDy=0;" edge="1" parent="1" target="FaWjhztN8qlUrvbQBv4B-33">
          <mxGeometry width="50" height="50" relative="1" as="geometry">
            <mxPoint x="520" y="1040" as="sourcePoint" />
            <mxPoint x="410" y="970" as="targetPoint" />
          </mxGeometry>
        </mxCell>
        <mxCell id="FaWjhztN8qlUrvbQBv4B-46" value="" style="endArrow=none;html=1;rounded=0;exitX=1;exitY=0.5;exitDx=0;exitDy=0;" edge="1" parent="1" source="FaWjhztN8qlUrvbQBv4B-5">
          <mxGeometry width="50" height="50" relative="1" as="geometry">
            <mxPoint x="450" y="870" as="sourcePoint" />
            <mxPoint x="620" y="470" as="targetPoint" />
          </mxGeometry>
        </mxCell>
        <mxCell id="FaWjhztN8qlUrvbQBv4B-47" value="" style="endArrow=none;html=1;rounded=0;" edge="1" parent="1">
          <mxGeometry width="50" height="50" relative="1" as="geometry">
            <mxPoint x="620" y="470" as="sourcePoint" />
            <mxPoint x="620" y="1140" as="targetPoint" />
          </mxGeometry>
        </mxCell>
        <mxCell id="FaWjhztN8qlUrvbQBv4B-48" value="" style="endArrow=classic;html=1;rounded=0;entryX=1;entryY=0.5;entryDx=0;entryDy=0;" edge="1" parent="1" target="FaWjhztN8qlUrvbQBv4B-34">
          <mxGeometry width="50" height="50" relative="1" as="geometry">
            <mxPoint x="620" y="1140" as="sourcePoint" />
            <mxPoint x="500" y="820" as="targetPoint" />
          </mxGeometry>
        </mxCell>
        <mxCell id="FaWjhztN8qlUrvbQBv4B-49" value="(0)" style="text;html=1;align=center;verticalAlign=middle;whiteSpace=wrap;rounded=0;" vertex="1" parent="1">
          <mxGeometry x="180" y="115" width="60" height="30" as="geometry" />
        </mxCell>
        <mxCell id="FaWjhztN8qlUrvbQBv4B-50" value="(1)" style="text;html=1;align=center;verticalAlign=middle;whiteSpace=wrap;rounded=0;" vertex="1" parent="1">
          <mxGeometry x="160" y="230" width="60" height="30" as="geometry" />
        </mxCell>
        <mxCell id="FaWjhztN8qlUrvbQBv4B-51" value="(2)" style="text;html=1;align=center;verticalAlign=middle;whiteSpace=wrap;rounded=0;" vertex="1" parent="1">
          <mxGeometry x="137.5" y="340" width="60" height="30" as="geometry" />
        </mxCell>
        <mxCell id="FaWjhztN8qlUrvbQBv4B-52" value="(3)" style="text;html=1;align=center;verticalAlign=middle;whiteSpace=wrap;rounded=0;" vertex="1" parent="1">
          <mxGeometry x="160" y="450" width="60" height="30" as="geometry" />
        </mxCell>
        <mxCell id="FaWjhztN8qlUrvbQBv4B-53" value="(4)" style="text;html=1;align=center;verticalAlign=middle;whiteSpace=wrap;rounded=0;" vertex="1" parent="1">
          <mxGeometry x="520" y="410" width="60" height="30" as="geometry" />
        </mxCell>
        <mxCell id="FaWjhztN8qlUrvbQBv4B-54" value="(5)" style="text;html=1;align=center;verticalAlign=middle;whiteSpace=wrap;rounded=0;" vertex="1" parent="1">
          <mxGeometry x="180" y="570" width="60" height="30" as="geometry" />
        </mxCell>
        <mxCell id="FaWjhztN8qlUrvbQBv4B-55" value="(6)" style="text;html=1;align=center;verticalAlign=middle;whiteSpace=wrap;rounded=0;" vertex="1" parent="1">
          <mxGeometry x="180" y="675" width="60" height="30" as="geometry" />
        </mxCell>
        <mxCell id="FaWjhztN8qlUrvbQBv4B-56" value="(7)" style="text;html=1;align=center;verticalAlign=middle;whiteSpace=wrap;rounded=0;" vertex="1" parent="1">
          <mxGeometry x="197.5" y="760" width="60" height="30" as="geometry" />
        </mxCell>
        <mxCell id="FaWjhztN8qlUrvbQBv4B-57" value="(8)" style="text;html=1;align=center;verticalAlign=middle;whiteSpace=wrap;rounded=0;" vertex="1" parent="1">
          <mxGeometry x="80" y="740" width="60" height="30" as="geometry" />
        </mxCell>
        <mxCell id="FaWjhztN8qlUrvbQBv4B-58" value="(9)" style="text;html=1;align=center;verticalAlign=middle;whiteSpace=wrap;rounded=0;" vertex="1" parent="1">
          <mxGeometry x="197.5" y="880" width="60" height="30" as="geometry" />
        </mxCell>
        <mxCell id="FaWjhztN8qlUrvbQBv4B-59" value="(10)" style="text;html=1;align=center;verticalAlign=middle;whiteSpace=wrap;rounded=0;" vertex="1" parent="1">
          <mxGeometry x="490" y="860" width="60" height="30" as="geometry" />
        </mxCell>
        <mxCell id="FaWjhztN8qlUrvbQBv4B-60" value="(11)" style="text;html=1;align=center;verticalAlign=middle;whiteSpace=wrap;rounded=0;" vertex="1" parent="1">
          <mxGeometry x="237.39" y="980" width="60" height="30" as="geometry" />
        </mxCell>
        <mxCell id="FaWjhztN8qlUrvbQBv4B-61" value="(12)" style="text;html=1;align=center;verticalAlign=middle;whiteSpace=wrap;rounded=0;" vertex="1" parent="1">
          <mxGeometry x="237.39" y="1079" width="60" height="30" as="geometry" />
        </mxCell>
        <mxCell id="FaWjhztN8qlUrvbQBv4B-62" value="F" style="text;html=1;align=center;verticalAlign=middle;whiteSpace=wrap;rounded=0;" vertex="1" parent="1">
          <mxGeometry x="257.5" y="290" width="60" height="30" as="geometry" />
        </mxCell>
        <mxCell id="FaWjhztN8qlUrvbQBv4B-63" value="T" style="text;html=1;align=center;verticalAlign=middle;whiteSpace=wrap;rounded=0;" vertex="1" parent="1">
          <mxGeometry x="430" y="220" width="60" height="30" as="geometry" />
        </mxCell>
        <mxCell id="FaWjhztN8qlUrvbQBv4B-64" value="F" style="text;html=1;align=center;verticalAlign=middle;whiteSpace=wrap;rounded=0;" vertex="1" parent="1">
          <mxGeometry x="257.5" y="400" width="60" height="30" as="geometry" />
        </mxCell>
        <mxCell id="FaWjhztN8qlUrvbQBv4B-65" value="T" style="text;html=1;align=center;verticalAlign=middle;whiteSpace=wrap;rounded=0;" vertex="1" parent="1">
          <mxGeometry x="422.5" y="330" width="60" height="30" as="geometry" />
        </mxCell>
        <mxCell id="FaWjhztN8qlUrvbQBv4B-66" value="F" style="text;html=1;align=center;verticalAlign=middle;whiteSpace=wrap;rounded=0;" vertex="1" parent="1">
          <mxGeometry x="257.5" y="510" width="60" height="30" as="geometry" />
        </mxCell>
        <mxCell id="FaWjhztN8qlUrvbQBv4B-67" value="T" style="text;html=1;align=center;verticalAlign=middle;whiteSpace=wrap;rounded=0;" vertex="1" parent="1">
          <mxGeometry x="400" y="440" width="60" height="30" as="geometry" />
        </mxCell>
        <mxCell id="FaWjhztN8qlUrvbQBv4B-68" value="F" style="text;html=1;align=center;verticalAlign=middle;whiteSpace=wrap;rounded=0;" vertex="1" parent="1">
          <mxGeometry x="257.5" y="840" width="60" height="30" as="geometry" />
        </mxCell>
        <mxCell id="FaWjhztN8qlUrvbQBv4B-69" value="T" style="text;html=1;align=center;verticalAlign=middle;whiteSpace=wrap;rounded=0;" vertex="1" parent="1">
          <mxGeometry x="160" y="770" width="60" height="30" as="geometry" />
        </mxCell>
        <mxCell id="FaWjhztN8qlUrvbQBv4B-70" value="T" style="text;html=1;align=center;verticalAlign=middle;whiteSpace=wrap;rounded=0;" vertex="1" parent="1">
          <mxGeometry x="400" y="890" width="60" height="30" as="geometry" />
        </mxCell>
        <mxCell id="FaWjhztN8qlUrvbQBv4B-71" value="F" style="text;html=1;align=center;verticalAlign=middle;whiteSpace=wrap;rounded=0;" vertex="1" parent="1">
          <mxGeometry x="257.5" y="960" width="60" height="30" as="geometry" />
        </mxCell>
        <mxCell id="FaWjhztN8qlUrvbQBv4B-72" value="" style="endArrow=classic;html=1;rounded=0;entryX=0;entryY=0.5;entryDx=0;entryDy=0;" edge="1" parent="1" target="FaWjhztN8qlUrvbQBv4B-33">
          <mxGeometry width="50" height="50" relative="1" as="geometry">
            <mxPoint x="110" y="1040" as="sourcePoint" />
            <mxPoint x="380" y="890" as="targetPoint" />
          </mxGeometry>
        </mxCell>
      </root>
    </mxGraphModel>
  </diagram>
</mxfile>
